<svg xmlns="http://www.w3.org/2000/svg" version="1.1" xmlns:xlink="http://www.w3.org/1999/xlink" xmlns:svgjs="http://svgjs.dev/svgjs" width="2000" height="2250" viewBox="0 0 2000 2250"><g transform="matrix(1,0,0,1,0,0)"><svg viewBox="0 0 320 360" data-background-color="#fbffff" preserveAspectRatio="xMidYMid meet" height="2250" width="2000" xmlns="http://www.w3.org/2000/svg" xmlns:xlink="http://www.w3.org/1999/xlink"><g id="tight-bounds" transform="matrix(1,0,0,1,0,0)"><svg viewBox="0 0 320 360" height="360" width="320"><g><svg></svg></g><g><svg viewBox="0 0 320 360" height="360" width="320"><g><path xmlns="http://www.w3.org/2000/svg" d="M320 141.95l-19.957-19.957v-28.224l-53.812-53.812h-28.223l-19.958-19.957h-76.1l-19.957 19.957h-28.224l-53.812 53.812v28.224l-19.957 19.957v76.104l19.957 19.958v28.223l53.816 53.808h28.224l19.957 19.957h76.104l19.958-19.957h28.223l53.812-53.812v-28.224l19.949-19.957zM244.374 44.437l51.189 51.189v21.887l-73.076-73.076zM295.563 123.849v112.306l-79.408 79.408h-112.306l-79.412-79.412v-112.302l79.412-79.412h112.306zM123.807 24.48h72.39l15.478 15.477h-103.346zM24.437 95.626l51.189-51.189h21.887l-73.076 73.076zM4.484 216.197v-72.394l15.477-15.478v103.342zM75.626 315.563l-51.189-51.189v-21.887l73.076 73.076zM196.197 335.52h-72.39l-15.478-15.477h103.342zM295.563 264.374l-51.189 51.189h-21.887l73.076-73.076zM315.52 216.197l-15.477 15.478v-103.346l15.477 15.478z" fill="#f6467e" fill-rule="nonzero" stroke="none" stroke-width="1" stroke-linecap="butt" stroke-linejoin="miter" stroke-miterlimit="10" stroke-dasharray="" stroke-dashoffset="0" font-family="none" font-weight="none" font-size="none" text-anchor="none" style="mix-blend-mode: normal" data-fill-palette-color="tertiary"></path></g><g transform="matrix(1,0,0,1,70,90)"><svg viewBox="0 0 180 180" height="180" width="180"><g><svg viewBox="0 0 180 180" height="180" width="180"><g><svg viewBox="0 0 180 180" height="180" width="180"><g id="textblocktransform"><svg viewBox="0 0 180 180" height="180" width="180" id="textblock"><g><svg viewBox="0 0 180 180" height="180" width="180"><g transform="matrix(1,0,0,1,58.18019484660536,58.18019484660536)"><svg viewBox="0 0 63.63961030678928 63.63961030678928" height="63.63961030678928" width="63.63961030678928"><g><circle r="32" cx="31.81980515339464" cy="31.81980515339464" fill="#f6467e" data-fill-palette-color="accent"></circle></g></svg></g><g><path d="M21.877 59l-4.729 0.299-3.163 8.46 3.37 3.337-0.621 1.662-12.583-12.604 0.593-1.586 17.765-1.258zM12.901 66.687l2.725-7.29-9.511 0.598z" fill="#f6467e" data-fill-palette-color="primary"></path><path d="M31.192 43.473l-1.001 1.585-6.382 0.345c-0.183 0.377-0.394 0.756-0.635 1.137v0l-2.32 3.674 4.346 2.745-0.915 1.449-13.696-8.651 3.235-5.122c1.105-1.75 2.388-2.856 3.848-3.317 1.463-0.467 2.925-0.239 4.385 0.683v0c1.068 0.675 1.801 1.515 2.199 2.522 0.394 1.012 0.436 2.123 0.124 3.333v0zM21.925 45.799c0.854-1.352 1.208-2.58 1.061-3.681-0.15-1.096-0.765-1.986-1.844-2.668v0c-1.108-0.7-2.186-0.88-3.235-0.541-1.047 0.348-1.997 1.199-2.852 2.551v0l-2.298 3.64 6.869 4.339z" fill="#f6467e" data-fill-palette-color="primary"></path><path d="M34.592 38.126l6.873-6.899 1.05 1.046-8.082 8.113-11.477-11.434 7.841-7.87 1.049 1.046-6.631 6.656 4.085 4.07 5.913-5.935 1.028 1.025-5.912 5.934z" fill="#f6467e" data-fill-palette-color="primary"></path><path d="M46.545 29.73l-8.84-13.575 1.436-0.935 8.032 12.333 7.603-4.95 0.808 1.241z" fill="#f6467e" data-fill-palette-color="primary"></path><path d="M62.62 3.844l-2.047 12.251 2.097 5.198-1.571 0.633-2.097-5.197-9.975-7.401 1.701-0.686 8.553 6.354 1.749-10.511z" fill="#f6467e" data-fill-palette-color="primary"></path><path d="M83.897 0.051c2.061-0.191 3.719 0.151 4.975 1.027 1.262 0.875 1.973 2.173 2.132 3.893v0c0.159 1.72-0.301 3.123-1.381 4.208-1.074 1.085-2.641 1.723-4.703 1.914v0l-4.326 0.401 0.472 5.089-1.707 0.158-1.495-16.13zM84.741 9.591c1.593-0.148 2.782-0.609 3.567-1.384 0.778-0.781 1.108-1.807 0.99-3.078v0c-0.121-1.305-0.636-2.27-1.544-2.894-0.914-0.617-2.168-0.852-3.761-0.704v0l-4.286 0.397 0.747 8.06z" fill="#f6467e" data-fill-palette-color="primary"></path><path d="M107.36 17.991l-1.287-4.56-8.936-1.312-2.553 3.996-1.756-0.258 9.674-14.953 1.675 0.246 4.969 17.103zM97.957 10.833l7.7 1.13-2.586-9.172z" fill="#f6467e" data-fill-palette-color="primary"></path><path d="M118.111 21.654c-1.97-0.718-3.301-1.844-3.994-3.378-0.686-1.531-0.636-3.376 0.152-5.535v0l3.181-8.722 1.61 0.587-3.157 8.656c-0.645 1.768-0.728 3.232-0.25 4.394 0.48 1.155 1.475 2.008 2.983 2.558v0c1.522 0.555 2.838 0.545 3.949-0.03 1.12-0.579 2.002-1.752 2.647-3.52v0l3.157-8.656 1.563 0.57-3.182 8.723c-0.788 2.159-1.934 3.605-3.438 4.336-1.511 0.729-3.251 0.735-5.221 0.017z" fill="#f6467e" data-fill-palette-color="primary"></path><path d="M129.213 26.953l8.917-13.525 1.431 0.943-8.101 12.288 7.574 4.994-0.815 1.237z" fill="#f6467e" data-fill-palette-color="primary"></path><path d="M141.099 35.704l10.666-12.194 1.29 1.129-10.666 12.193z" fill="#f6467e" data-fill-palette-color="primary"></path><path d="M166.522 40.667l1.051 1.328-12.702 10.054-0.876-1.106 3.844-16.324-10.307 8.159-1.064-1.344 12.703-10.055 0.875 1.107-3.831 16.34z" fill="#f6467e" data-fill-palette-color="primary"></path><path d="M161.828 68.354l3.24-3.457-3.492-8.33-4.741-0.122-0.686-1.637 17.801 0.561 0.655 1.562-12.079 13.087zM163.1 56.605l3.009 7.178 6.519-6.953z" fill="#f6467e" data-fill-palette-color="primary"></path><path d="M10.474 129.076l3.373-3.328-3.163-8.46-4.732-0.308-0.621-1.662 17.765 1.258 0.593 1.586-12.583 12.604zM12.206 117.386l2.726 7.29 6.786-6.692z" fill="#f6467e" data-fill-palette-color="primary"></path><path d="M20.9 146.841l-1.002-1.586 2.431-5.911c-0.262-0.327-0.514-0.681-0.754-1.062v0l-2.32-3.673-4.347 2.746-0.915-1.449 13.696-8.651 3.236 5.122c1.105 1.75 1.553 3.383 1.342 4.899-0.207 1.522-1.041 2.744-2.502 3.667v0c-1.068 0.675-2.142 0.975-3.221 0.902-1.083-0.079-2.104-0.519-3.064-1.32v0zM22.781 137.473c0.854 1.352 1.81 2.199 2.868 2.54 1.054 0.336 2.122 0.162 3.201-0.519v0c1.108-0.7 1.734-1.596 1.879-2.689 0.135-1.095-0.224-2.318-1.079-3.671v0l-2.298-3.639-6.87 4.339z" fill="#f6467e" data-fill-palette-color="primary"></path><path d="M28.068 152.187l6.873 6.899-1.05 1.046-8.083-8.113 11.477-11.434 7.841 7.87-1.05 1.046-6.631-6.656-4.085 4.07 5.912 5.935-1.028 1.024-5.913-5.935z" fill="#f6467e" data-fill-palette-color="primary"></path><path d="M39.902 164.284l8.84-13.576 1.437 0.936-8.032 12.333 7.603 4.951-0.809 1.242z" fill="#f6467e" data-fill-palette-color="primary"></path><path d="M70.187 161.211l-9.975 7.401-2.097 5.198-1.571-0.634 2.097-5.198-2.047-12.251 1.702 0.687 1.749 10.511 8.553-6.355z" fill="#f6467e" data-fill-palette-color="primary"></path><path d="M85.764 163.622c2.061 0.191 3.628 0.832 4.701 1.924 1.08 1.092 1.54 2.498 1.381 4.218v0c-0.159 1.72-0.87 3.014-2.132 3.882-1.255 0.869-2.913 1.208-4.974 1.017v0l-4.326-0.401-0.472 5.089-1.706-0.158 1.495-16.131zM84.84 173.154c1.593 0.148 2.846-0.087 3.76-0.704 0.908-0.624 1.421-1.572 1.539-2.844v0c0.121-1.305-0.208-2.348-0.985-3.129-0.785-0.775-1.974-1.236-3.567-1.384v0l-4.286-0.397-0.748 8.06z" fill="#f6467e" data-fill-palette-color="primary"></path><path d="M109.128 177.867l-2.543-3.998-8.936 1.312-1.297 4.561-1.756 0.258 4.968-17.103 1.676-0.246 9.674 14.954zM98.065 173.714l7.7-1.13-5.114-8.043z" fill="#f6467e" data-fill-palette-color="primary"></path><path d="M122.379 173.861c-1.97 0.718-3.713 0.714-5.23-0.013-1.511-0.729-2.66-2.174-3.448-4.333v0l-3.181-8.722 1.61-0.588 3.157 8.656c0.645 1.768 1.524 2.942 2.637 3.524 1.111 0.575 2.421 0.587 3.93 0.037v0c1.522-0.555 2.522-1.41 3.003-2.566 0.484-1.164 0.404-2.63-0.242-4.397v0l-3.157-8.656 1.563-0.57 3.181 8.722c0.788 2.159 0.841 4.003 0.162 5.532-0.686 1.531-2.015 2.656-3.985 3.374z" fill="#f6467e" data-fill-palette-color="primary"></path><path d="M135.914 167.024l-8.917-13.525 1.431-0.944 8.101 12.288 7.575-4.994 0.815 1.237z" fill="#f6467e" data-fill-palette-color="primary"></path><path d="M149.114 157.272l-10.666-12.193 1.29-1.128 10.666 12.193z" fill="#f6467e" data-fill-palette-color="primary"></path><path d="M150.663 130.592l1.051-1.327 12.702 10.054-0.876 1.107-16.77 0.006 10.307 8.159-1.064 1.344-12.702-10.055 0.876-1.107 16.783-0.022z" fill="#f6467e" data-fill-palette-color="primary"></path><path d="M173.055 120.166l-4.737 0.113-3.492 8.33 3.236 3.466-0.686 1.636-12.079-13.087 0.654-1.562 17.801-0.56zM163.784 127.494l3.009-7.177-9.527 0.225z" fill="#f6467e" data-fill-palette-color="primary"></path><path d="M2.155 91.906c0-3.418 2.771-6.189 6.188-6.188 3.418 0 6.189 2.771 6.189 6.188 0 3.418-2.771 6.189-6.189 6.189-3.418 0-6.189-2.771-6.188-6.189z" fill="#f6467e" data-fill-palette-color="primary"></path><path d="M165.468 91.906c0-3.418 2.771-6.189 6.189-6.188 3.418 0 6.189 2.771 6.188 6.188 0 3.418-2.771 6.189-6.188 6.189-3.418 0-6.189-2.771-6.189-6.189z" fill="#f6467e" data-fill-palette-color="primary"></path></g></svg></g></svg></g></svg></g></svg></g></svg></g></svg></g><defs></defs></svg><rect width="320" height="360" fill="none" stroke="none" visibility="hidden"></rect></g></svg></g></svg>